{"title":"Who.Needs.Enemies.2013.UNRATED.HDRiP.XViD.AC3-FiRE","uid":9532027,"size":1457262684,"categoryP":"video","categoryS":"movies","magnet":"?xt=urn:btih:d18dccc4f39ea990270de727114eedfae6230fe8&amp;dn=Who.Needs.Enemies.2013.UNRATED.HDRiP.XViD.AC3-FiRE&amp;tr=udp%3A%2F%2Ftracker.openbittorrent.com%3A80&amp;tr=udp%3A%2F%2Fopen.demonii.com%3A1337&amp;tr=udp%3A%2F%2Ftracker.coppersurfer.tk%3A6969&amp;tr=udp%3A%2F%2Fexodus.desync.com%3A6969","seeders":4,"leechers":1,"uploader":"Acesn8s","files":-1,"time":1390860524,"description":"Who.Needs.Enemies.2013.UNRATED.HDRiP.XViD.AC3.FiRE\n\n**********************************************************************************\n\nFormat                                   : AVI\nFormat/Info                              : Audio Video Interleave\nFile size                                : 1.36 GiB\nDuration                                 : 1h 31mn\nOverall bit rate                         : 2 132 Kbps\nWriting application                      : VirtualDubMod 1.5.10.2 \nWriting library                          : VirtualDubMod build 2542/release\n\n**********************************************************************************\n\nVideo\n\nID                                       : 0\nFormat                                   : MPEG-4 Visual\nFormat profile                           : Advanced Simple@L5\nFormat settings, BVOP                    : 2\nFormat settings, QPel                    : No\nFormat settings, GMC                     : No warppoints\nFormat settings, Matrix                  : Default (MPEG)\nMuxing mode                              : Packed bitstream\nCodec ID                                 : XVID\nCodec ID/Hint                            : XviD\nDuration                                 : 1h 31mn\nBit rate                                 : 1 739 Kbps\nWidth                                    : 720 pixels\nHeight                                   : 300 pixels\nDisplay aspect ratio                     : 2.40:1\nFrame rate                               : 23.976 fps\nColor space                              : YUV\nChroma subsampling                       : 4:2:0\nBit depth                                : 8 bits\nScan type                                : Progressive\nCompression mode                         : Lossy\nBits/(Pixel*Frame)                       : 0.336\nStream size                              : 1.11 GiB (82%)\nWriting library                          : XviD 58\n\n**********************************************************************************\n\nAudio\n\nID                                       : 1\nFormat                                   : AC-3\nFormat/Info                              : Audio Coding 3\nMode extension                           : CM (complete main)\nFormat settings, Endianness              : Big\nCodec ID                                 : 2000\nDuration                                 : 1h 31mn\nBit rate mode                            : Constant\nBit rate                                 : 384 Kbps\nChannel(s)                               : 6 channels\nChannel positions                        : Front: L C R, Side: L R, LFE\nSampling rate                            : 48.0 KHz\nBit depth                                : 16 bits\nCompression mode                         : Lossy\nStream size                              : 250 MiB (18%)\nAlignment                                : Split accross interleaves\nInterleave, duration                     : 42 ms (1.00 video frame)\nInterleave, preload duration             : 500 ms\nSource                                   : iTUNES\n\n**********************************************************************************\n\nGenre \n\nCrime | Drama | Thriller   \n\nActors\n\nMichael McKell, Ian Pirie, Emma Barton \n\nPlot\n\nWhen local London gangster and ex-boxer Tom Sheridan agrees to hire his strip club out to lifelong friend and colleague Ian Levine he soon discovers the private party involves something so atrocious and unspeakable that it sparks a bloody feud between the two old. \n\n**********************************************************************************\n\nIMDb \n  &lt;a href=&quot;\nhttp://www.imdb.com/title/tt2847238/&quot; rel=&quot;nofollow&quot; target=&quot;_NEW&quot;&gt;\nhttp://www.imdb.com/title/tt2847238/&lt;/a&gt;\n\n**********************************************************************************\n\nScreens \n &lt;a href=&quot;\nhttp://img.acianetmedia.com/i/3s9qg.jpg&quot; rel=&quot;nofollow&quot; target=&quot;_NEW&quot;&gt;\nhttp://img.acianetmedia.com/i/3s9qg.jpg&lt;/a&gt;\n &lt;a href=&quot;\nhttp://img.acianetmedia.com/i/vBuOL.jpg&quot; rel=&quot;nofollow&quot; target=&quot;_NEW&quot;&gt;\nhttp://img.acianetmedia.com/i/vBuOL.jpg&lt;/a&gt;\n &lt;a href=&quot;\nhttp://img.acianetmedia.com/i/AZw4n.jpg&quot; rel=&quot;nofollow&quot; target=&quot;_NEW&quot;&gt;\nhttp://img.acianetmedia.com/i/AZw4n.jpg&lt;/a&gt;\n &lt;a href=&quot;\nhttp://img.acianetmedia.com/i/WwrTp.jpg&quot; rel=&quot;nofollow&quot; target=&quot;_NEW&quot;&gt;\nhttp://img.acianetmedia.com/i/WwrTp.jpg&lt;/a&gt;\n &lt;a href=&quot;\nhttp://img.acianetmedia.com/i/y1eOo.jpg&quot; rel=&quot;nofollow&quot; target=&quot;_NEW&quot;&gt;\nhttp://img.acianetmedia.com/i/y1eOo.jpg&lt;/a&gt;","torrent":{"xt":"urn:btih:d18dccc4f39ea990270de727114eedfae6230fe8","amp;dn":"Who.Needs.Enemies.2013.UNRATED.HDRiP.XViD.AC3-FiRE","amp;tr":["udp%3A%2F%2Ftracker.openbittorrent.com%3A80","udp%3A%2F%2Fopen.demonii.com%3A1337","udp%3A%2F%2Ftracker.coppersurfer.tk%3A6969","udp%3A%2F%2Fexodus.desync.com%3A6969"],"infoHash":"d18dccc4f39ea990270de727114eedfae6230fe8","infoHashBuffer":{"type":"Buffer","data":[209,141,204,196,243,158,169,144,39,13,231,39,17,78,237,250,230,35,15,232]},"announce":[],"urlList":[]}}